<?xml version="1.0" ?><!DOCTYPE svg  PUBLIC '-//W3C//DTD SVG 1.1//EN'  'http://www.w3.org/Graphics/SVG/1.1/DTD/svg11.dtd'><svg height="2048px" style="shape-rendering:geometricPrecision; text-rendering:geometricPrecision; image-rendering:optimizeQuality; fill-rule:evenodd; clip-rule:evenodd" viewBox="0 0 2048 2048" width="2048px" xml:space="preserve" xmlns="http://www.w3.org/2000/svg" xmlnsXlink="http://www.w3.org/1999/xlink"><defs><style type="text/css">
   <![CDATA[
    .fil2 {fill:none}
    .fil0 {fill:#333333;fill-rule:nonzero}
    .fil1 {fill:#E28D64;fill-rule:nonzero}
   ]]>
  </style></defs><g id="Layer_x0020_1"><polygon class="fil0" points="1422.36,1196.43 1422.36,1772.61 1422.36,1788.61 1406.36,1788.61 519.933,1788.61 503.933,1788.61 503.933,1772.61 503.933,1196.43 535.934,1196.43 535.934,1756.61 1390.36,1756.61 1390.36,1196.43 "/><polygon class="fil1" points="675.058,1516.44 1251.23,1516.44 1251.23,1548.44 675.058,1548.44 "/><polygon class="fil1" points="695.255,1275.29 1268.18,1336.43 1264.8,1368.19 691.88,1307.04 "/><polygon class="fil1" points="733.867,1031.35 1289.02,1185.57 1280.52,1216.31 725.367,1062.1 "/><polygon class="fil1" points="869.365,739.342 1369.91,1024.71 1354.16,1052.46 853.616,767.091 "/><polygon class="fil1" points="1143.05,454.905 1483.61,919.66 1457.86,938.534 1117.3,473.779 "/><polygon class="fil1" points="1506.14,297.228 1629.58,860.027 1598.33,866.776 1474.89,303.977 "/></g><rect class="fil2" height="2048" width="2048"/></svg>